<svg xmlns="http://www.w3.org/2000/svg" width="48" height="48" viewBox="0 0 48 48" fill="none">
  <rect width="48" height="48" rx="12" fill="#F7EFF8"/>
  <path d="M19.5 9C17.8 9 16.5 10.3 16.5 12V21H22.5V12C22.5 10.3 21.2 9 19.5 9Z" fill="#36C5F0"/>
  <path d="M9 19.5C9 21.2 10.3 22.5 12 22.5H21V16.5H12C10.3 16.5 9 17.8 9 19.5Z" fill="#2EB67D"/>
  <path d="M28.5 39C30.2 39 31.5 37.7 31.5 36V27H25.5V36C25.5 37.7 26.8 39 28.5 39Z" fill="#ECB22E"/>
  <path d="M39 28.5C39 26.8 37.7 25.5 36 25.5H27V31.5H36C37.7 31.5 39 30.2 39 28.5Z" fill="#E01E5A"/>
  <path d="M25.5 12C25.5 10.3 26.8 9 28.5 9C30.2 9 31.5 10.3 31.5 12V16.5H27C26.2 16.5 25.5 15.8 25.5 15V12Z" fill="#2EB67D"/>
  <path d="M36 16.5C37.7 16.5 39 17.8 39 19.5C39 21.2 37.7 22.5 36 22.5H31.5V18C31.5 17.2 32.2 16.5 33 16.5H36Z" fill="#ECB22E"/>
  <path d="M22.5 36C22.5 37.7 21.2 39 19.5 39C17.8 39 16.5 37.7 16.5 36V31.5H21C21.8 31.5 22.5 32.2 22.5 33V36Z" fill="#E01E5A"/>
  <path d="M12 31.5C10.3 31.5 9 30.2 9 28.5C9 26.8 10.3 25.5 12 25.5H16.5V30C16.5 30.8 15.8 31.5 15 31.5H12Z" fill="#36C5F0"/>
</svg>
