<svg width="64" height="64" viewBox="0 0 64 64" fill="none" xmlns="http://www.w3.org/2000/svg">
  <rect width="64" height="64" rx="14" fill="#FF5C35"/>
  <path d="M44.7 25.5V19a5.3 5.3 0 1 0-3.2 0v6.5a14.2 14.2 0 0 0-6.8 4l-6-4.7a5.6 5.6 0 0 0 .2-1.3 5.3 5.3 0 1 0-2 4.1l6.1 4.7a14 14 0 0 0-1.1 5.4 14.3 14.3 0 1 0 12.8-14.2Zm-1.6-12.8a2 2 0 1 1 0 4 2 2 0 0 1 0-4ZM23.6 25.4a2 2 0 1 1 0-4 2 2 0 0 1 0 4Zm20.1 23.3a11 11 0 1 1 0-22 11 11 0 0 1 0 22Z" fill="white"/>
  <path d="M43.7 31.2a6.5 6.5 0 1 0 0 13 6.5 6.5 0 0 0 0-13Zm0 9.7a3.2 3.2 0 1 1 0-6.4 3.2 3.2 0 0 1 0 6.4Z" fill="white"/>
</svg>
