<svg width="64" height="64" viewBox="0 0 64 64" fill="none" xmlns="http://www.w3.org/2000/svg" role="img" aria-label="Meta Ads">
  <rect width="64" height="64" rx="14" fill="#0866FF"/>
  <path d="M17.4 40.6C19.9 31.1 24 22 29.4 22c3.2 0 5.2 2.1 7.6 6.2l1.1 1.9c2.2-3.6 4.3-6.2 8-6.2 5.5 0 8.9 6.1 8.9 12.7 0 5.5-2.6 9.4-7 9.4-3.2 0-5.7-1.9-9.1-7.4l-1.6-2.6-1.5 2.6C32.4 44.1 29.9 46 26.8 46c-3.8 0-6.3-2.3-7.4-5.4h-2ZM26.9 39.4c1.2 0 2.5-.8 5-4.8l2-3.2-.9-1.4c-1.6-2.6-2.5-3.5-3.7-3.5-2.1 0-4.8 5.5-6.7 12 .8.6 2.2.9 4.3.9ZM47.7 39.4c1.9 0 2.8-1.3 2.8-3.1 0-3.8-1.9-7.7-4.5-7.7-1.6 0-3 1.5-5.5 5.5l1.8 2.9c2.2 3.4 3.8 2.4 5.4 2.4Z" fill="white"/>
  <path d="M10 45.5h10.2c-1.3-1.2-2.3-2.8-2.9-4.9H10v4.9Z" fill="#8EC5FF"/>
</svg>
